<svg width="208" height="81" viewBox="0 0 208 81" fill="none" xmlns="http://www.w3.org/2000/svg">
  <path d="M9.70117 44.8897H27.0476V40.1738H11.3675L9.70117 44.8897Z" fill="#231F20"/>
  <path d="M0.169922 62.3684H27.051V56.3779H2.30614L0.169922 62.3684Z" fill="#231F20"/>
  <path d="M17.5163 32.3926H0.169922V37.1084H15.85L17.5163 32.3926Z" fill="#231F20"/>
  <path d="M27.0477 14.9141H0.169922V20.9046H24.9114L27.0477 14.9141Z" fill="#231F20"/>
  <path d="M4.93164 53.3129H27.047V47.958H6.81791L4.93164 53.3129Z" fill="#231F20"/>
  <path d="M22.2853 23.9697H0.169922V29.3246H20.399L22.2853 23.9697Z" fill="#231F20"/>
  <path d="M203.511 23.9727C201.032 23.9727 199.016 25.9828 199.016 28.4556C199.016 30.9283 201.032 32.9451 203.511 32.9451C205.991 32.9451 208 30.9316 208 28.4556C208 25.9795 205.988 23.9727 203.511 23.9727ZM203.511 31.9633C201.572 31.9633 199.995 30.3892 199.995 28.4556C199.995 26.522 201.572 24.9578 203.511 24.9578C205.451 24.9578 207.017 26.5286 207.017 28.4556C207.017 30.3825 205.444 31.9633 203.511 31.9633Z" fill="#231F20"/>
  <path fill-rule="evenodd" clip-rule="evenodd" d="M204.437 28.7355C205.181 28.6789 205.581 28.3728 205.581 27.6106C205.581 27.178 205.457 26.7786 205.084 26.5223C204.764 26.3326 204.314 26.3193 203.944 26.3193H201.918V30.506H202.734V28.7355H203.561L204.504 30.506H205.447L204.434 28.7355H204.437ZM202.738 28.1098V26.925H203.754C204.158 26.925 204.751 26.925 204.751 27.4842C204.751 28.0133 204.437 28.1198 203.974 28.1065H202.738V28.1098Z" fill="#231F20"/>
  <path d="M32.4937 61.0612V23.96H31.1973V62.3625H94.0875V61.0612H32.4937Z" fill="#231F20"/>
  <path d="M175.235 32.9385C175.285 32.4459 175.305 31.9367 175.305 31.4275C175.305 22.3086 167.903 14.917 158.778 14.917C149.653 14.917 142.248 22.3053 142.248 31.4275C142.248 40.5497 149.64 47.9314 158.778 47.9314C166.37 47.9314 172.762 42.8228 174.701 35.8605H168.319C166.64 39.4482 162.994 41.9309 158.778 41.9309C153.479 41.9309 149.103 38.0237 148.37 32.9385H175.235ZM158.778 20.9241C162.93 20.9241 166.52 23.3536 168.219 26.8481H149.317C151.033 23.3536 154.619 20.9241 158.775 20.9241" fill="#231F20"/>
  <path d="M207.987 14.917L177.996 14.9203V20.9441V47.9214H184.012V20.9241H207.987V14.917Z" fill="#231F20"/>
  <path d="M113.643 14.9209C109.647 14.9209 105.971 16.3387 103.115 18.6949V14.9875H97.1094V62.3724H103.115V44.1679C105.971 46.5209 109.647 47.932 113.643 47.932C122.777 47.932 130.176 40.5437 130.176 31.4281C130.176 22.3125 122.777 14.9242 113.643 14.9242M113.643 41.9381C107.837 41.9381 103.121 37.2389 103.121 31.4281C103.121 25.6173 107.837 20.9281 113.643 20.9281C119.448 20.9281 124.17 25.6339 124.17 31.4281C124.17 37.2223 119.458 41.9381 113.643 41.9381Z" fill="#231F20"/>
  <path d="M94.1664 32.9385C94.213 32.4459 94.2397 31.9367 94.2397 31.4275C94.2397 22.3086 86.8379 14.917 77.6965 14.917C68.555 14.917 61.1699 22.3053 61.1699 31.4275C61.1699 40.5497 68.5717 47.9314 77.6965 47.9314C85.2416 47.9314 91.6102 42.896 93.5832 35.997H87.1812C85.4782 39.5114 81.8756 41.9276 77.6965 41.9276C72.4009 41.9276 68.0418 38.0204 67.302 32.9351H94.1664V32.9385ZM77.6965 20.9241C81.8623 20.9241 85.4449 23.3536 87.1478 26.8481H68.2484C69.9514 23.3536 73.5373 20.9241 77.6965 20.9241Z" fill="#231F20"/>
  <path d="M143.335 14.9205H138.949V0.5H132.93V14.9205H129.834V20.9143H132.93V47.9249H138.949V20.9143H143.335V14.9205Z" fill="#231F20"/>
  <path d="M61.2973 20.9247V20.8815L61.3206 20.8582L61.2973 20.8449V14.9209H61.2673H56.4583H31.1836V20.9247H53.7389L37.8889 41.9315V47.9553V47.9519H61.2307V42.0047H45.364L61.2673 20.9247H61.2973Z" fill="#231F20"/>
  <path d="M206.704 1.83448V11.8586H208V0.533203H142.377V1.83448H206.704Z" fill="#231F20"/>
  <path d="M160.733 55.2168L157.457 62.3622H158.42L159.24 60.5617H162.539L163.359 62.3622H164.322L161.046 55.2168H160.733ZM159.613 59.743L160.89 56.8376L162.169 59.743H159.613Z" fill="#231F20"/>
  <path d="M198.631 55.2168L195.355 62.3622H196.319L197.138 60.5617H200.438L201.258 62.3622H202.221L198.945 55.2168H198.631ZM197.512 59.743L198.788 56.8376L200.064 59.743H197.508H197.512Z" fill="#231F20"/>
  <path d="M205.721 61.5439V55.2173V55.1807H204.824V55.2173V62.3626H207.904V61.5439H205.721Z" fill="#231F20"/>
  <path d="M114.492 55.2173V62.3626H115.389V55.2173V55.1807H114.492V55.2173Z" fill="#231F20"/>
  <path d="M124.049 55.2173V60.4856L119.014 55.2173H118.65V62.3626H119.547V57.0078L124.669 62.366H124.946V55.2173V55.1807H124.049V55.2173Z" fill="#231F20"/>
  <path d="M127.557 55.2173V55.9994H129.266V62.3626H130.163V55.9994H131.869V55.2173V55.1807H127.557V55.2173Z" fill="#231F20"/>
  <path d="M134.574 55.2173V62.3626H138.44V61.5439H135.474V58.8282H138.353V58.0095H135.474V55.9994H138.44V55.2173V55.1807H134.574V55.2173Z" fill="#231F20"/>
  <path d="M145.479 57.2274C145.479 56.5418 145.135 55.8662 144.535 55.5135C144.226 55.3404 143.886 55.2572 143.536 55.2173C143.236 55.184 142.932 55.1807 142.639 55.1807H141.553V62.3626H142.449V59.3241H142.822L144.939 62.3626H146.025L143.756 59.2376C144.795 59.1144 145.482 58.2558 145.482 57.2274H145.479ZM142.732 58.5786H142.446V55.9794H142.686C143.572 55.9794 144.642 56.1425 144.642 57.264C144.642 58.3856 143.649 58.5786 142.732 58.5786Z" fill="#231F20"/>
  <path d="M154.041 55.2173V60.4856L149.006 55.2173H148.643V62.3626H149.539V57.0078L154.661 62.366H154.938V55.2173V55.1807H154.041V55.2173Z" fill="#231F20"/>
  <path d="M165.494 55.2173V55.9994H167.2V62.3626H168.097V55.9994H169.807V55.2173V55.1807H165.494V55.2173Z" fill="#231F20"/>
  <path d="M172.484 55.2173V62.3626H173.384V55.2173V55.1807H172.484V55.2173Z" fill="#231F20"/>
  <path d="M191.94 55.2173V60.4856L186.904 55.2173H186.541V62.3626H187.437V57.0078L192.56 62.366H192.836V55.2173V55.1807H191.94V55.2173Z" fill="#231F20"/>
  <path d="M181.162 55.217C180.792 55.0939 180.398 55.0273 179.992 55.0273C179.585 55.0273 179.192 55.0939 178.822 55.217C177.322 55.7096 176.223 57.1207 176.223 58.7714C176.223 60.5286 177.369 61.9264 178.932 62.3691C179.269 62.4656 179.622 62.5155 179.989 62.5155C180.355 62.5155 180.712 62.4622 181.045 62.3691C182.611 61.9297 183.754 60.5286 183.754 58.7714C183.754 57.1207 182.655 55.7129 181.155 55.217H181.162ZM179.992 61.6768C178.436 61.6768 177.119 60.4088 177.119 58.7714C177.119 57.134 178.302 55.866 179.992 55.866C181.682 55.866 182.865 57.1906 182.865 58.7714C182.865 60.3522 181.548 61.6768 179.992 61.6768Z" fill="#231F20"/>
  <path d="M99.9989 75.0957C99.3157 75.0957 98.7559 75.6448 98.7559 76.3238C98.7559 77.0027 99.3124 77.5751 99.9989 77.5751C100.685 77.5751 101.242 77.0127 101.242 76.3238C101.242 75.6349 100.685 75.0957 99.9989 75.0957Z" fill="#231F20"/>
  <path d="M43.1182 76.3367C43.5081 76.0139 43.7114 75.4647 43.7114 75.0154C43.7114 73.601 42.8083 72.9121 40.9487 72.9121H39.9355V80.347H41.7485C43.0182 80.347 44.378 79.7846 44.378 78.2037C44.378 77.375 43.8447 76.6063 43.1182 76.3334V76.3367ZM41.1086 77.0722H41.5219C42.2917 77.0722 43.2082 77.2586 43.2082 78.1472C43.2082 78.8926 42.685 79.272 41.6552 79.272H41.1086V77.0722ZM41.1986 76.0838H41.1086V73.9904H41.2153C42.0684 73.9904 42.5983 74.1635 42.5983 75.0288C42.5983 75.8941 42.0618 76.0871 41.1986 76.0871V76.0838Z" fill="#231F20"/>
  <path d="M49.623 80.347H53.7522V79.2554H50.7961V76.8259H53.6655V75.7343H50.7961V74.007H53.7522V72.9121H49.623V80.347Z" fill="#231F20"/>
  <path d="M59.002 74.007H60.7016V80.347H61.8747V74.007H63.5777V72.9121H59.002V74.007Z" fill="#231F20"/>
  <path d="M68.8262 74.007H70.5258V80.347H71.6989V74.007H73.4019V72.9121H68.8262V74.007Z" fill="#231F20"/>
  <path d="M78.6504 80.347H82.7762V79.2554H79.8201V76.8259H82.6929V75.7343H79.8201V74.007H82.7762V72.9121H78.6504V80.347Z" fill="#231F20"/>
  <path d="M92.2212 75.092C92.2212 74.3299 91.8346 73.6276 91.2081 73.2616C90.5882 72.9121 89.845 72.9121 89.2485 72.9121H88.0254V80.347H89.1985V77.3185H89.3584L91.468 80.347H92.8977L90.6049 77.192C91.568 76.9757 92.2212 76.1403 92.2212 75.092ZM91.1047 75.1286C91.1047 75.9506 90.5782 76.3001 89.3418 76.3001H89.1952V73.9871H89.2951C90.5449 73.9871 91.1047 74.3398 91.1047 75.1286Z" fill="#231F20"/>
  <path d="M1.17309 72.9121H0V80.347H3.3493V79.2554H1.17309V72.9121Z" fill="#231F20"/>
  <path d="M9.87841 72.9121H8.70508V80.347H9.87841V72.9121Z" fill="#231F20"/>
  <path d="M27.0879 80.347H31.217V79.2554H28.261V76.8259H31.1304V75.7343H28.261V74.007H31.217V72.9121H27.0879V80.347Z" fill="#231F20"/>
  <path d="M18.4861 77.9774L16.4432 72.9121H15.1602L18.2395 80.3503H18.7361L21.8021 72.9121H20.5224L18.4861 77.9774Z" fill="#231F20"/>
  <path d="M161.5 72.7627C159.354 72.7627 157.607 74.4966 157.607 76.6332C157.607 78.7698 159.317 80.5038 161.5 80.5038C163.683 80.5038 165.392 78.8031 165.392 76.6332C165.392 74.4633 163.646 72.7627 161.5 72.7627ZM161.5 79.3889C160 79.3889 158.777 78.1542 158.777 76.6332C158.777 75.1123 159.947 73.8776 161.5 73.8776C163.053 73.8776 164.223 75.0624 164.223 76.6332C164.223 78.2041 163.003 79.3889 161.5 79.3889Z" fill="#231F20"/>
  <path d="M185.915 77.5584H187.758C187.632 78.6101 186.508 79.4055 185.562 79.4055C184.152 79.4055 182.916 78.1042 182.916 76.6199C182.916 75.1356 184.112 73.8543 185.639 73.8543C186.458 73.8543 187.278 74.2803 187.778 74.9659L187.871 75.0957L188.708 74.3003L188.628 74.2004C187.911 73.2985 186.778 72.7627 185.602 72.7627C183.476 72.7627 181.746 74.5066 181.746 76.6499C181.746 78.7931 183.469 80.5004 185.509 80.5004C187.548 80.5004 189.041 78.9795 189.041 76.8862V76.4635H185.922V77.5584H185.915Z" fill="#231F20"/>
  <path d="M193.934 80.347H198.063V79.2554H195.107V76.8259H197.976V75.7343H195.107V74.007H198.063V72.9121H193.934V80.347Z" fill="#231F20"/>
  <path d="M205.54 77.1959C206.504 76.9796 207.157 76.1442 207.157 75.0959C207.157 74.3338 206.77 73.6316 206.144 73.2655C205.524 72.916 204.781 72.916 204.184 72.916H202.961V80.3509H204.134V77.3224H204.294L206.404 80.3509H207.833L205.544 77.1959H205.54ZM206.04 75.1325C206.04 75.9545 205.514 76.304 204.277 76.304H204.131V73.991H204.231C205.48 73.991 206.04 74.3438 206.04 75.1325Z" fill="#231F20"/>
  <path d="M150.532 72.9121H149.359V80.347H152.709V79.2554H150.532V72.9121Z" fill="#231F20"/>
  <path d="M175.673 72.9321V77.9907L170.874 72.972L170.834 72.9321H170.291V80.347H171.464V75.2218L176.326 80.3071L176.366 80.3503H176.843V72.9121H175.81L175.673 72.9321Z" fill="#231F20"/>
  <path d="M110.124 72.9121H108.951V80.347H112.3V79.2554H110.124V72.9121Z" fill="#231F20"/>
  <path d="M118.83 72.9121H117.656V80.347H118.83V72.9121Z" fill="#231F20"/>
  <path d="M136.043 80.347H140.169V79.2554H137.213V76.8259H140.082V75.7343H137.213V74.007H140.169V72.9121H136.043V80.347Z" fill="#231F20"/>
  <path d="M127.438 77.9774L125.395 72.9121H124.115L127.191 80.3503H127.688L130.757 72.9121H129.474L127.438 77.9774Z" fill="#231F20"/>
</svg>