<?xml version="1.0" encoding="utf-8"?>
<!-- Generator: Adobe Illustrator 15.0.0, SVG Export Plug-In  -->
<!DOCTYPE svg PUBLIC "-//W3C//DTD SVG 1.1//EN" "http://www.w3.org/Graphics/SVG/1.1/DTD/svg11.dtd" [
	<!ENTITY ns_flows "http://ns.adobe.com/Flows/1.0/">
]>
<svg version="1.1"
	 xmlns="http://www.w3.org/2000/svg" xmlns:xlink="http://www.w3.org/1999/xlink" xmlns:a="http://ns.adobe.com/AdobeSVGViewerExtensions/3.0/"
	 x="0px" y="0px" width="199px" height="150px" viewBox="0 0 199 150" enable-background="new 0 0 199 150" xml:space="preserve">
<defs>
</defs>
<g>
	<defs>
		<rect id="SVGID_1_" y="0" width="199.163" height="149.938"/>
	</defs>
	<clipPath id="SVGID_2_">
		<use xlink:href="#SVGID_1_"  overflow="visible"/>
	</clipPath>
	<path clip-path="url(#SVGID_2_)" fill="#F1EAE2" d="M80.922,0.035c5.475,0.459,9.229,4.527,8.674,11.14
		c-0.619,7.399-5.268,18.31-20.293,30.594c-37.803,30.899-50.36,42.703-51.85,60.507c-3.494,41.72,75.098,50.296,82.251-7.312
		c4.072-32.807-29.207-21.349-28.213-33.227c0.039-0.476,13.571-15.384,17.567-12.091c16.731,13.793,40.222-9.146,63.279-7.625
		c13.274,0.875,23.592,6.243,22.477,19.561c-0.286,3.426-11.989,13.947-12.791,14.553c-2.194,1.653-3.911,2.808-3.678,0.016
		c2.114-25.263-28.237-22.813-52.556-12.712c-6.68,2.775-4.653-2.966-2.916-4.043c5.675-3.517,12.951,7.457,11.748,21.825
		c-2.545,30.383-38.263,71.862-78.103,68.526c-24.452-2.047-38.016-20.397-36.389-39.839c3.162-37.751,73.088-61.735,73.088-89.297
		c0-6.018-3.322-9.786-5.592-9.786c-3.92,0-8.746,6.736-10.014,21.863c-5.166,61.688,40.567,102.188,83.592,105.792
		c34.121,2.857,55.431-22.378,55.431-22.378c0.474,0.041,2.635,1.693,2.522,3.034c-0.06,0.695-27.166,33.937-70.813,30.281
		c-56.922-4.766-90.735-58.294-87.16-100.98C44.027,14.485,70.529-0.834,80.922,0.035"/>
</g>
</svg>
